<mxfile host="app.diagrams.net" agent="Mozilla/5.0 (Macintosh; Intel Mac OS X 10_15_7) AppleWebKit/537.36 (KHTML, like Gecko) Chrome/133.0.0.0 Safari/537.36" version="26.0.16">
  <diagram id="C5RBs43oDa-KdzZeNtuy" name="Page-1">
    <mxGraphModel grid="1" page="1" gridSize="10" guides="1" tooltips="1" connect="1" arrows="1" fold="1" pageScale="1" pageWidth="1169" pageHeight="827" math="0" shadow="0">
      <root>
        <mxCell id="WIyWlLk6GJQsqaUBKTNV-0" />
        <mxCell id="WIyWlLk6GJQsqaUBKTNV-1" parent="WIyWlLk6GJQsqaUBKTNV-0" />
        <mxCell id="DZ3RFf5qfQ1vcVTamgb1-44" value="" style="edgeStyle=orthogonalEdgeStyle;rounded=0;orthogonalLoop=1;jettySize=auto;html=1;" edge="1" parent="WIyWlLk6GJQsqaUBKTNV-1" source="DZ3RFf5qfQ1vcVTamgb1-2" target="DZ3RFf5qfQ1vcVTamgb1-39">
          <mxGeometry relative="1" as="geometry" />
        </mxCell>
        <mxCell id="DZ3RFf5qfQ1vcVTamgb1-57" value="" style="edgeStyle=orthogonalEdgeStyle;rounded=0;orthogonalLoop=1;jettySize=auto;html=1;" edge="1" parent="WIyWlLk6GJQsqaUBKTNV-1" source="DZ3RFf5qfQ1vcVTamgb1-2" target="DZ3RFf5qfQ1vcVTamgb1-55">
          <mxGeometry relative="1" as="geometry" />
        </mxCell>
        <mxCell id="DZ3RFf5qfQ1vcVTamgb1-2" value="Input&lt;div&gt;Data&lt;/div&gt;" style="shape=cylinder3;whiteSpace=wrap;html=1;boundedLbl=1;backgroundOutline=1;size=15;fillColor=#f5f5f5;fontColor=#333333;strokeColor=#666666;" vertex="1" parent="WIyWlLk6GJQsqaUBKTNV-1">
          <mxGeometry x="180" y="240" width="60" height="80" as="geometry" />
        </mxCell>
        <mxCell id="DZ3RFf5qfQ1vcVTamgb1-4" value="Property Appraiser" style="rounded=1;whiteSpace=wrap;html=1;fillColor=#e1d5e7;strokeColor=#9673a6;" vertex="1" parent="WIyWlLk6GJQsqaUBKTNV-1">
          <mxGeometry x="20" y="240" width="120" height="30" as="geometry" />
        </mxCell>
        <mxCell id="DZ3RFf5qfQ1vcVTamgb1-5" value="Historic Sales" style="rounded=1;whiteSpace=wrap;html=1;fillColor=#e1d5e7;strokeColor=#9673a6;" vertex="1" parent="WIyWlLk6GJQsqaUBKTNV-1">
          <mxGeometry x="20" y="295" width="120" height="30" as="geometry" />
        </mxCell>
        <mxCell id="DZ3RFf5qfQ1vcVTamgb1-6" style="edgeStyle=orthogonalEdgeStyle;rounded=0;orthogonalLoop=1;jettySize=auto;html=1;entryX=0;entryY=0.5;entryDx=0;entryDy=0;entryPerimeter=0;" edge="1" parent="WIyWlLk6GJQsqaUBKTNV-1" source="DZ3RFf5qfQ1vcVTamgb1-4" target="DZ3RFf5qfQ1vcVTamgb1-2">
          <mxGeometry relative="1" as="geometry" />
        </mxCell>
        <mxCell id="DZ3RFf5qfQ1vcVTamgb1-7" style="edgeStyle=orthogonalEdgeStyle;rounded=0;orthogonalLoop=1;jettySize=auto;html=1;entryX=0;entryY=0.5;entryDx=0;entryDy=0;entryPerimeter=0;" edge="1" parent="WIyWlLk6GJQsqaUBKTNV-1" source="DZ3RFf5qfQ1vcVTamgb1-5" target="DZ3RFf5qfQ1vcVTamgb1-2">
          <mxGeometry relative="1" as="geometry" />
        </mxCell>
        <mxCell id="DZ3RFf5qfQ1vcVTamgb1-28" style="edgeStyle=orthogonalEdgeStyle;rounded=0;orthogonalLoop=1;jettySize=auto;html=1;entryX=0.25;entryY=0;entryDx=0;entryDy=0;" edge="1" parent="WIyWlLk6GJQsqaUBKTNV-1" source="DZ3RFf5qfQ1vcVTamgb1-8" target="DZ3RFf5qfQ1vcVTamgb1-27">
          <mxGeometry relative="1" as="geometry" />
        </mxCell>
        <mxCell id="DZ3RFf5qfQ1vcVTamgb1-8" value="Testing" style="strokeWidth=2;html=1;shape=mxgraph.flowchart.direct_data;whiteSpace=wrap;fillColor=#f5f5f5;fontColor=#333333;strokeColor=#666666;" vertex="1" parent="WIyWlLk6GJQsqaUBKTNV-1">
          <mxGeometry x="360" y="240" width="100" height="30" as="geometry" />
        </mxCell>
        <mxCell id="DZ3RFf5qfQ1vcVTamgb1-24" style="edgeStyle=orthogonalEdgeStyle;rounded=0;orthogonalLoop=1;jettySize=auto;html=1;entryX=0;entryY=0.5;entryDx=0;entryDy=0;" edge="1" parent="WIyWlLk6GJQsqaUBKTNV-1" source="DZ3RFf5qfQ1vcVTamgb1-9" target="DZ3RFf5qfQ1vcVTamgb1-16">
          <mxGeometry relative="1" as="geometry" />
        </mxCell>
        <mxCell id="DZ3RFf5qfQ1vcVTamgb1-9" value="Training" style="strokeWidth=2;html=1;shape=mxgraph.flowchart.direct_data;whiteSpace=wrap;fillColor=#f5f5f5;fontColor=#333333;strokeColor=#666666;" vertex="1" parent="WIyWlLk6GJQsqaUBKTNV-1">
          <mxGeometry x="360" y="290" width="100" height="30" as="geometry" />
        </mxCell>
        <mxCell id="DZ3RFf5qfQ1vcVTamgb1-26" value="" style="edgeStyle=orthogonalEdgeStyle;rounded=0;orthogonalLoop=1;jettySize=auto;html=1;" edge="1" parent="WIyWlLk6GJQsqaUBKTNV-1" source="DZ3RFf5qfQ1vcVTamgb1-16" target="DZ3RFf5qfQ1vcVTamgb1-25">
          <mxGeometry relative="1" as="geometry" />
        </mxCell>
        <mxCell id="DZ3RFf5qfQ1vcVTamgb1-16" value="&lt;div&gt;Randomized&lt;/div&gt;&lt;div&gt;Search Cross Validation&lt;/div&gt;" style="shape=step;perimeter=stepPerimeter;whiteSpace=wrap;html=1;fixedSize=1;size=20;fillColor=#fff2cc;strokeColor=#d6b656;" vertex="1" parent="WIyWlLk6GJQsqaUBKTNV-1">
          <mxGeometry x="490" y="280" width="120" height="50" as="geometry" />
        </mxCell>
        <mxCell id="DZ3RFf5qfQ1vcVTamgb1-36" value="" style="edgeStyle=orthogonalEdgeStyle;rounded=0;orthogonalLoop=1;jettySize=auto;html=1;" edge="1" parent="WIyWlLk6GJQsqaUBKTNV-1" source="DZ3RFf5qfQ1vcVTamgb1-25" target="DZ3RFf5qfQ1vcVTamgb1-35">
          <mxGeometry relative="1" as="geometry" />
        </mxCell>
        <mxCell id="DZ3RFf5qfQ1vcVTamgb1-58" value="" style="edgeStyle=orthogonalEdgeStyle;rounded=0;orthogonalLoop=1;jettySize=auto;html=1;" edge="1" parent="WIyWlLk6GJQsqaUBKTNV-1" source="DZ3RFf5qfQ1vcVTamgb1-25" target="DZ3RFf5qfQ1vcVTamgb1-56">
          <mxGeometry relative="1" as="geometry" />
        </mxCell>
        <mxCell id="DZ3RFf5qfQ1vcVTamgb1-25" value="Array of Model Results" style="rounded=0;whiteSpace=wrap;html=1;fillColor=#ffe6cc;strokeColor=#d79b00;" vertex="1" parent="WIyWlLk6GJQsqaUBKTNV-1">
          <mxGeometry x="640" y="275" width="80" height="60" as="geometry" />
        </mxCell>
        <mxCell id="DZ3RFf5qfQ1vcVTamgb1-31" value="" style="edgeStyle=orthogonalEdgeStyle;rounded=0;orthogonalLoop=1;jettySize=auto;html=1;" edge="1" parent="WIyWlLk6GJQsqaUBKTNV-1" source="DZ3RFf5qfQ1vcVTamgb1-27" target="DZ3RFf5qfQ1vcVTamgb1-30">
          <mxGeometry relative="1" as="geometry" />
        </mxCell>
        <mxCell id="DZ3RFf5qfQ1vcVTamgb1-27" value="Fit" style="shape=step;perimeter=stepPerimeter;whiteSpace=wrap;html=1;fixedSize=1;fillColor=#fff2cc;strokeColor=#d6b656;" vertex="1" parent="WIyWlLk6GJQsqaUBKTNV-1">
          <mxGeometry x="880" y="290" width="120" height="30" as="geometry" />
        </mxCell>
        <mxCell id="DZ3RFf5qfQ1vcVTamgb1-34" style="edgeStyle=orthogonalEdgeStyle;rounded=0;orthogonalLoop=1;jettySize=auto;html=1;" edge="1" parent="WIyWlLk6GJQsqaUBKTNV-1" source="DZ3RFf5qfQ1vcVTamgb1-30" target="DZ3RFf5qfQ1vcVTamgb1-32">
          <mxGeometry relative="1" as="geometry" />
        </mxCell>
        <mxCell id="DZ3RFf5qfQ1vcVTamgb1-30" value="Final Output" style="rounded=1;whiteSpace=wrap;html=1;fillColor=#e1d5e7;strokeColor=#9673a6;" vertex="1" parent="WIyWlLk6GJQsqaUBKTNV-1">
          <mxGeometry x="1020" y="290" width="120" height="30" as="geometry" />
        </mxCell>
        <mxCell id="DZ3RFf5qfQ1vcVTamgb1-32" value="" style="sketch=0;pointerEvents=1;shadow=0;dashed=0;html=1;strokeColor=none;fillColor=#434445;aspect=fixed;labelPosition=center;verticalLabelPosition=bottom;verticalAlign=top;align=center;outlineConnect=0;shape=mxgraph.vvd.nsx_dashboard;" vertex="1" parent="WIyWlLk6GJQsqaUBKTNV-1">
          <mxGeometry x="1021.72" y="402.5" width="118.28" height="110" as="geometry" />
        </mxCell>
        <mxCell id="DZ3RFf5qfQ1vcVTamgb1-37" value="" style="edgeStyle=orthogonalEdgeStyle;rounded=0;orthogonalLoop=1;jettySize=auto;html=1;" edge="1" parent="WIyWlLk6GJQsqaUBKTNV-1" source="DZ3RFf5qfQ1vcVTamgb1-35" target="DZ3RFf5qfQ1vcVTamgb1-27">
          <mxGeometry relative="1" as="geometry" />
        </mxCell>
        <mxCell id="DZ3RFf5qfQ1vcVTamgb1-35" value="Model with lowest CV Error" style="rounded=0;whiteSpace=wrap;html=1;fillColor=#d5e8d4;strokeColor=#82b366;" vertex="1" parent="WIyWlLk6GJQsqaUBKTNV-1">
          <mxGeometry x="760" y="275" width="80" height="60" as="geometry" />
        </mxCell>
        <mxCell id="DZ3RFf5qfQ1vcVTamgb1-38" value="" style="edgeStyle=orthogonalEdgeStyle;rounded=0;orthogonalLoop=1;jettySize=auto;html=1;" edge="1" parent="WIyWlLk6GJQsqaUBKTNV-1" source="DZ3RFf5qfQ1vcVTamgb1-18" target="DZ3RFf5qfQ1vcVTamgb1-16">
          <mxGeometry relative="1" as="geometry" />
        </mxCell>
        <mxCell id="DZ3RFf5qfQ1vcVTamgb1-39" value="20/80 Split" style="rhombus;whiteSpace=wrap;html=1;fillColor=#fff2cc;strokeColor=#d6b656;" vertex="1" parent="WIyWlLk6GJQsqaUBKTNV-1">
          <mxGeometry x="260" y="240" width="80" height="80" as="geometry" />
        </mxCell>
        <mxCell id="DZ3RFf5qfQ1vcVTamgb1-42" style="edgeStyle=orthogonalEdgeStyle;rounded=0;orthogonalLoop=1;jettySize=auto;html=1;entryX=0;entryY=0.5;entryDx=0;entryDy=0;entryPerimeter=0;" edge="1" parent="WIyWlLk6GJQsqaUBKTNV-1" source="DZ3RFf5qfQ1vcVTamgb1-39" target="DZ3RFf5qfQ1vcVTamgb1-8">
          <mxGeometry relative="1" as="geometry" />
        </mxCell>
        <mxCell id="DZ3RFf5qfQ1vcVTamgb1-43" style="edgeStyle=orthogonalEdgeStyle;rounded=0;orthogonalLoop=1;jettySize=auto;html=1;entryX=0;entryY=0.5;entryDx=0;entryDy=0;entryPerimeter=0;" edge="1" parent="WIyWlLk6GJQsqaUBKTNV-1" source="DZ3RFf5qfQ1vcVTamgb1-39" target="DZ3RFf5qfQ1vcVTamgb1-9">
          <mxGeometry relative="1" as="geometry" />
        </mxCell>
        <mxCell id="DZ3RFf5qfQ1vcVTamgb1-48" value="" style="group" connectable="0" vertex="1" parent="WIyWlLk6GJQsqaUBKTNV-1">
          <mxGeometry x="485" y="380" width="130" height="155" as="geometry" />
        </mxCell>
        <mxCell id="DZ3RFf5qfQ1vcVTamgb1-19" value="" style="group" connectable="0" vertex="1" parent="DZ3RFf5qfQ1vcVTamgb1-48">
          <mxGeometry x="5" width="120" height="125" as="geometry" />
        </mxCell>
        <mxCell id="DZ3RFf5qfQ1vcVTamgb1-18" value="&lt;div&gt;Random Forest&lt;/div&gt;&lt;div&gt;Light GBM&lt;/div&gt;&lt;div&gt;ANN&lt;/div&gt;&lt;div&gt;Elastic Net&lt;/div&gt;&lt;div&gt;OLS&lt;/div&gt;" style="shape=cube;whiteSpace=wrap;html=1;boundedLbl=1;backgroundOutline=1;darkOpacity=0.05;darkOpacity2=0.1;fillColor=#ffe6cc;strokeColor=#d79b00;" vertex="1" parent="DZ3RFf5qfQ1vcVTamgb1-19">
          <mxGeometry y="25" width="120" height="100" as="geometry" />
        </mxCell>
        <mxCell id="DZ3RFf5qfQ1vcVTamgb1-13" value="Models and Params" style="text;html=1;align=center;verticalAlign=middle;resizable=0;points=[];autosize=1;strokeColor=none;fillColor=none;" vertex="1" parent="DZ3RFf5qfQ1vcVTamgb1-48">
          <mxGeometry y="125" width="130" height="30" as="geometry" />
        </mxCell>
        <mxCell id="DZ3RFf5qfQ1vcVTamgb1-55" value="" style="shape=image;html=1;verticalAlign=top;verticalLabelPosition=bottom;labelBackgroundColor=#ffffff;imageAspect=0;aspect=fixed;image=https://cdn0.iconfinder.com/data/icons/evericons-24px-vol-1/24/bar-chart-128.png" vertex="1" parent="WIyWlLk6GJQsqaUBKTNV-1">
          <mxGeometry x="146" y="393.5" width="128" height="128" as="geometry" />
        </mxCell>
        <mxCell id="DZ3RFf5qfQ1vcVTamgb1-56" value="" style="shape=image;html=1;verticalAlign=top;verticalLabelPosition=bottom;labelBackgroundColor=#ffffff;imageAspect=0;aspect=fixed;image=https://cdn2.iconfinder.com/data/icons/boxicons-regular-vol-3/24/bx-scatter-chart-128.png" vertex="1" parent="WIyWlLk6GJQsqaUBKTNV-1">
          <mxGeometry x="616" y="403" width="128" height="128" as="geometry" />
        </mxCell>
        <mxCell id="DZ3RFf5qfQ1vcVTamgb1-59" style="edgeStyle=orthogonalEdgeStyle;rounded=0;orthogonalLoop=1;jettySize=auto;html=1;entryX=-0.024;entryY=0.585;entryDx=0;entryDy=0;entryPerimeter=0;dashed=1;" edge="1" parent="WIyWlLk6GJQsqaUBKTNV-1" source="DZ3RFf5qfQ1vcVTamgb1-56" target="DZ3RFf5qfQ1vcVTamgb1-32">
          <mxGeometry relative="1" as="geometry" />
        </mxCell>
        <mxCell id="DZ3RFf5qfQ1vcVTamgb1-60" value="Maybe" style="edgeLabel;html=1;align=center;verticalAlign=middle;resizable=0;points=[];" connectable="0" vertex="1" parent="DZ3RFf5qfQ1vcVTamgb1-59">
          <mxGeometry x="-0.2365" y="3" relative="1" as="geometry">
            <mxPoint x="1" y="3" as="offset" />
          </mxGeometry>
        </mxCell>
        <mxCell id="DZ3RFf5qfQ1vcVTamgb1-61" value="Error Charts" style="text;html=1;align=center;verticalAlign=middle;resizable=0;points=[];autosize=1;strokeColor=none;fillColor=none;" vertex="1" parent="WIyWlLk6GJQsqaUBKTNV-1">
          <mxGeometry x="635" y="512.5" width="90" height="30" as="geometry" />
        </mxCell>
        <mxCell id="DZ3RFf5qfQ1vcVTamgb1-62" value="EDA Summary" style="text;html=1;align=center;verticalAlign=middle;resizable=0;points=[];autosize=1;strokeColor=none;fillColor=none;" vertex="1" parent="WIyWlLk6GJQsqaUBKTNV-1">
          <mxGeometry x="160" y="505" width="100" height="30" as="geometry" />
        </mxCell>
        <object label="&lt;font style=&quot;font-size: 36px;&quot;&gt;Hillsborough County Parcel Sales Analysis&lt;/font&gt;&lt;div&gt;&lt;font style=&quot;font-size: 24px;&quot;&gt;%date%&lt;/font&gt;&lt;/div&gt;" placeholders="1" id="DZ3RFf5qfQ1vcVTamgb1-63">
          <mxCell style="text;html=1;align=center;verticalAlign=middle;resizable=0;points=[];autosize=1;strokeColor=none;fillColor=none;" vertex="1" parent="WIyWlLk6GJQsqaUBKTNV-1">
            <mxGeometry x="235" y="115" width="700" height="90" as="geometry" />
          </mxCell>
        </object>
        <mxCell id="DZ3RFf5qfQ1vcVTamgb1-64" value="Tools Used" style="swimlane;whiteSpace=wrap;html=1;rounded=1;" vertex="1" parent="WIyWlLk6GJQsqaUBKTNV-1">
          <mxGeometry x="40" y="560" width="120" height="200" as="geometry">
            <mxRectangle x="40" y="560" width="100" height="30" as="alternateBounds" />
          </mxGeometry>
        </mxCell>
        <mxCell id="DZ3RFf5qfQ1vcVTamgb1-71" value="" style="shape=image;verticalLabelPosition=bottom;labelBackgroundColor=default;verticalAlign=top;aspect=fixed;imageAspect=0;image=https://www.gstatic.com/devrel-devsite/prod/vdbb152dfd6ef5e309aa1d261d45f3fd443aed2691cbfba3f9f80f8a4012a0a8f/tensorflow/images/lockup.svg;" vertex="1" parent="DZ3RFf5qfQ1vcVTamgb1-64">
          <mxGeometry x="10" y="30" width="89.55" height="20" as="geometry" />
        </mxCell>
        <mxCell id="DZ3RFf5qfQ1vcVTamgb1-65" value="" style="shape=image;verticalLabelPosition=bottom;labelBackgroundColor=default;verticalAlign=top;aspect=fixed;imageAspect=0;image=https://scikit-learn.org/stable/_static/scikit-learn-logo-small.png;" vertex="1" parent="DZ3RFf5qfQ1vcVTamgb1-64">
          <mxGeometry x="12.409999999999997" y="60" width="55.17" height="20" as="geometry" />
        </mxCell>
        <mxCell id="DZ3RFf5qfQ1vcVTamgb1-67" value="" style="shape=image;verticalLabelPosition=bottom;labelBackgroundColor=default;verticalAlign=top;aspect=fixed;imageAspect=0;image=https://techfieldday.com/wp-content/uploads/2023/05/2016-09-30-Microsoft-Azure-Logo.png;" vertex="1" parent="DZ3RFf5qfQ1vcVTamgb1-64">
          <mxGeometry x="12.409999999999997" y="88.13" width="75.11" height="23.75" as="geometry" />
        </mxCell>
        <mxCell id="DZ3RFf5qfQ1vcVTamgb1-74" value="" style="shape=image;verticalLabelPosition=bottom;labelBackgroundColor=default;verticalAlign=top;aspect=fixed;imageAspect=0;image=https://upload.wikimedia.org/wikipedia/commons/thumb/f/f3/Apache_Spark_logo.svg/1200px-Apache_Spark_logo.svg.png;" vertex="1" parent="DZ3RFf5qfQ1vcVTamgb1-64">
          <mxGeometry x="12.409999999999997" y="120" width="53.27" height="27.7" as="geometry" />
        </mxCell>
        <mxCell id="DZ3RFf5qfQ1vcVTamgb1-72" value="" style="shape=image;verticalLabelPosition=bottom;labelBackgroundColor=default;verticalAlign=top;aspect=fixed;imageAspect=0;image=https://seaborn.pydata.org/_static/logo-wide-lightbg.svg;" vertex="1" parent="DZ3RFf5qfQ1vcVTamgb1-64">
          <mxGeometry x="12.410000000000025" y="160" width="69.74" height="20" as="geometry" />
        </mxCell>
      </root>
    </mxGraphModel>
  </diagram>
</mxfile>
